<?xml version='1.0' encoding='UTF-8'?>
<svg width="41mm" height="41mm" version="1.1" viewBox="0 0 41 41" xmlns="http://www.w3.org/2000/svg"><path d="M4,4H5V5H4zM5,4H6V5H5zM6,4H7V5H6zM7,4H8V5H7zM8,4H9V5H8zM9,4H10V5H9zM10,4H11V5H10zM13,4H14V5H13zM14,4H15V5H14zM18,4H19V5H18zM19,4H20V5H19zM20,4H21V5H20zM22,4H23V5H22zM23,4H24V5H23zM24,4H25V5H24zM26,4H27V5H26zM27,4H28V5H27zM30,4H31V5H30zM31,4H32V5H31zM32,4H33V5H32zM33,4H34V5H33zM34,4H35V5H34zM35,4H36V5H35zM36,4H37V5H36zM4,5H5V6H4zM10,5H11V6H10zM14,5H15V6H14zM16,5H17V6H16zM19,5H20V6H19zM20,5H21V6H20zM21,5H22V6H21zM25,5H26V6H25zM26,5H27V6H26zM27,5H28V6H27zM30,5H31V6H30zM36,5H37V6H36zM4,6H5V7H4zM6,6H7V7H6zM7,6H8V7H7zM8,6H9V7H8zM10,6H11V7H10zM13,6H14V7H13zM14,6H15V7H14zM15,6H16V7H15zM16,6H17V7H16zM18,6H19V7H18zM19,6H20V7H19zM21,6H22V7H21zM23,6H24V7H23zM27,6H28V7H27zM30,6H31V7H30zM32,6H33V7H32zM33,6H34V7H33zM34,6H35V7H34zM36,6H37V7H36zM4,7H5V8H4zM6,7H7V8H6zM7,7H8V8H7zM8,7H9V8H8zM10,7H11V8H10zM17,7H18V8H17zM21,7H22V8H21zM23,7H24V8H23zM26,7H27V8H26zM27,7H28V8H27zM30,7H31V8H30zM32,7H33V8H32zM33,7H34V8H33zM34,7H35V8H34zM36,7H37V8H36zM4,8H5V9H4zM6,8H7V9H6zM7,8H8V9H7zM8,8H9V9H8zM10,8H11V9H10zM13,8H14V9H13zM14,8H15V9H14zM15,8H16V9H15zM20,8H21V9H20zM21,8H22V9H21zM23,8H24V9H23zM25,8H26V9H25zM26,8H27V9H26zM27,8H28V9H27zM30,8H31V9H30zM32,8H33V9H32zM33,8H34V9H33zM34,8H35V9H34zM36,8H37V9H36zM4,9H5V10H4zM10,9H11V10H10zM12,9H13V10H12zM14,9H15V10H14zM17,9H18V10H17zM21,9H22V10H21zM22,9H23V10H22zM24,9H25V10H24zM26,9H27V10H26zM30,9H31V10H30zM36,9H37V10H36zM4,10H5V11H4zM5,10H6V11H5zM6,10H7V11H6zM7,10H8V11H7zM8,10H9V11H8zM9,10H10V11H9zM10,10H11V11H10zM12,10H13V11H12zM14,10H15V11H14zM16,10H17V11H16zM18,10H19V11H18zM20,10H21V11H20zM22,10H23V11H22zM24,10H25V11H24zM26,10H27V11H26zM28,10H29V11H28zM30,10H31V11H30zM31,10H32V11H31zM32,10H33V11H32zM33,10H34V11H33zM34,10H35V11H34zM35,10H36V11H35zM36,10H37V11H36zM13,11H14V12H13zM14,11H15V12H14zM15,11H16V12H15zM16,11H17V12H16zM18,11H19V12H18zM21,11H22V12H21zM23,11H24V12H23zM24,11H25V12H24zM25,11H26V12H25zM26,11H27V12H26zM4,12H5V13H4zM7,12H8V13H7zM9,12H10V13H9zM10,12H11V13H10zM12,12H13V13H12zM15,12H16V13H15zM17,12H18V13H17zM18,12H19V13H18zM19,12H20V13H19zM20,12H21V13H20zM23,12H24V13H23zM25,12H26V13H25zM26,12H27V13H26zM27,12H28V13H27zM28,12H29V13H28zM29,12H30V13H29zM31,12H32V13H31zM4,13H5V14H4zM9,13H10V14H9zM11,13H12V14H11zM12,13H13V14H12zM14,13H15V14H14zM16,13H17V14H16zM18,13H19V14H18zM20,13H21V14H20zM24,13H25V14H24zM28,13H29V14H28zM29,13H30V14H29zM30,13H31V14H30zM31,13H32V14H31zM36,13H37V14H36zM6,14H7V15H6zM7,14H8V15H7zM8,14H9V15H8zM9,14H10V15H9zM10,14H11V15H10zM12,14H13V15H12zM13,14H14V15H13zM15,14H16V15H15zM16,14H17V15H16zM20,14H21V15H20zM21,14H22V15H21zM23,14H24V15H23zM30,14H31V15H30zM31,14H32V15H31zM32,14H33V15H32zM34,14H35V15H34zM36,14H37V15H36zM4,15H5V16H4zM5,15H6V16H5zM6,15H7V16H6zM9,15H10V16H9zM12,15H13V16H12zM14,15H15V16H14zM15,15H16V16H15zM18,15H19V16H18zM19,15H20V16H19zM21,15H22V16H21zM23,15H24V16H23zM25,15H26V16H25zM26,15H27V16H26zM30,15H31V16H30zM32,15H33V16H32zM33,15H34V16H33zM5,16H6V17H5zM6,16H7V17H6zM7,16H8V17H7zM8,16H9V17H8zM9,16H10V17H9zM10,16H11V17H10zM12,16H13V17H12zM13,16H14V17H13zM14,16H15V17H14zM15,16H16V17H15zM16,16H17V17H16zM24,16H25V17H24zM25,16H26V17H25zM29,16H30V17H29zM30,16H31V17H30zM33,16H34V17H33zM35,16H36V17H35zM5,17H6V18H5zM7,17H8V18H7zM8,17H9V18H8zM9,17H10V18H9zM12,17H13V18H12zM16,17H17V18H16zM19,17H20V18H19zM20,17H21V18H20zM26,17H27V18H26zM28,17H29V18H28zM30,17H31V18H30zM32,17H33V18H32zM33,17H34V18H33zM34,17H35V18H34zM35,17H36V18H35zM36,17H37V18H36zM4,18H5V19H4zM5,18H6V19H5zM6,18H7V19H6zM7,18H8V19H7zM9,18H10V19H9zM10,18H11V19H10zM12,18H13V19H12zM13,18H14V19H13zM16,18H17V19H16zM21,18H22V19H21zM22,18H23V19H22zM25,18H26V19H25zM27,18H28V19H27zM28,18H29V19H28zM29,18H30V19H29zM30,18H31V19H30zM31,18H32V19H31zM32,18H33V19H32zM33,18H34V19H33zM34,18H35V19H34zM35,18H36V19H35zM4,19H5V20H4zM5,19H6V20H5zM6,19H7V20H6zM8,19H9V20H8zM14,19H15V20H14zM16,19H17V20H16zM19,19H20V20H19zM21,19H22V20H21zM22,19H23V20H22zM23,19H24V20H23zM24,19H25V20H24zM25,19H26V20H25zM30,19H31V20H30zM35,19H36V20H35zM4,20H5V21H4zM5,20H6V21H5zM7,20H8V21H7zM10,20H11V21H10zM11,20H12V21H11zM12,20H13V21H12zM13,20H14V21H13zM14,20H15V21H14zM15,20H16V21H15zM18,20H19V21H18zM21,20H22V21H21zM23,20H24V21H23zM25,20H26V21H25zM26,20H27V21H26zM28,20H29V21H28zM30,20H31V21H30zM32,20H33V21H32zM33,20H34V21H33zM35,20H36V21H35zM4,21H5V22H4zM9,21H10V22H9zM11,21H12V22H11zM12,21H13V22H12zM13,21H14V22H13zM14,21H15V22H14zM16,21H17V22H16zM20,21H21V22H20zM27,21H28V22H27zM28,21H29V22H28zM29,21H30V22H29zM31,21H32V22H31zM33,21H34V22H33zM35,21H36V22H35zM7,22H8V23H7zM10,22H11V23H10zM14,22H15V23H14zM15,22H16V23H15zM17,22H18V23H17zM18,22H19V23H18zM20,22H21V23H20zM22,22H23V23H22zM24,22H25V23H24zM25,22H26V23H25zM29,22H30V23H29zM30,22H31V23H30zM34,22H35V23H34zM35,22H36V23H35zM36,22H37V23H36zM4,23H5V24H4zM6,23H7V24H6zM7,23H8V24H7zM9,23H10V24H9zM11,23H12V24H11zM13,23H14V24H13zM15,23H16V24H15zM20,23H21V24H20zM21,23H22V24H21zM22,23H23V24H22zM25,23H26V24H25zM26,23H27V24H26zM27,23H28V24H27zM28,23H29V24H28zM31,23H32V24H31zM36,23H37V24H36zM5,24H6V25H5zM6,24H7V25H6zM9,24H10V25H9zM10,24H11V25H10zM11,24H12V25H11zM13,24H14V25H13zM15,24H16V25H15zM16,24H17V25H16zM18,24H19V25H18zM20,24H21V25H20zM21,24H22V25H21zM22,24H23V25H22zM23,24H24V25H23zM24,24H25V25H24zM25,24H26V25H25zM26,24H27V25H26zM7,25H8V26H7zM9,25H10V26H9zM11,25H12V26H11zM12,25H13V26H12zM16,25H17V26H16zM19,25H20V26H19zM20,25H21V26H20zM22,25H23V26H22zM24,25H25V26H24zM25,25H26V26H25zM29,25H30V26H29zM30,25H31V26H30zM33,25H34V26H33zM34,25H35V26H34zM35,25H36V26H35zM36,25H37V26H36zM4,26H5V27H4zM5,26H6V27H5zM8,26H9V27H8zM9,26H10V27H9zM10,26H11V27H10zM13,26H14V27H13zM14,26H15V27H14zM15,26H16V27H15zM17,26H18V27H17zM18,26H19V27H18zM19,26H20V27H19zM21,26H22V27H21zM23,26H24V27H23zM24,26H25V27H24zM25,26H26V27H25zM26,26H27V27H26zM28,26H29V27H28zM32,26H33V27H32zM33,26H34V27H33zM34,26H35V27H34zM36,26H37V27H36zM5,27H6V28H5zM6,27H7V28H6zM7,27H8V28H7zM12,27H13V28H12zM15,27H16V28H15zM18,27H19V28H18zM20,27H21V28H20zM22,27H23V28H22zM23,27H24V28H23zM24,27H25V28H24zM25,27H26V28H25zM26,27H27V28H26zM27,27H28V28H27zM28,27H29V28H28zM29,27H30V28H29zM4,28H5V29H4zM6,28H7V29H6zM7,28H8V29H7zM9,28H10V29H9zM10,28H11V29H10zM12,28H13V29H12zM14,28H15V29H14zM15,28H16V29H15zM16,28H17V29H16zM17,28H18V29H17zM19,28H20V29H19zM21,28H22V29H21zM22,28H23V29H22zM23,28H24V29H23zM24,28H25V29H24zM25,28H26V29H25zM28,28H29V29H28zM29,28H30V29H29zM30,28H31V29H30zM31,28H32V29H31zM32,28H33V29H32zM36,28H37V29H36zM12,29H13V30H12zM13,29H14V30H13zM16,29H17V30H16zM17,29H18V30H17zM23,29H24V30H23zM24,29H25V30H24zM26,29H27V30H26zM27,29H28V30H27zM28,29H29V30H28zM32,29H33V30H32zM33,29H34V30H33zM35,29H36V30H35zM36,29H37V30H36zM4,30H5V31H4zM5,30H6V31H5zM6,30H7V31H6zM7,30H8V31H7zM8,30H9V31H8zM9,30H10V31H9zM10,30H11V31H10zM13,30H14V31H13zM14,30H15V31H14zM16,30H17V31H16zM25,30H26V31H25zM28,30H29V31H28zM30,30H31V31H30zM32,30H33V31H32zM33,30H34V31H33zM34,30H35V31H34zM35,30H36V31H35zM4,31H5V32H4zM10,31H11V32H10zM12,31H13V32H12zM13,31H14V32H13zM14,31H15V32H14zM18,31H19V32H18zM19,31H20V32H19zM23,31H24V32H23zM24,31H25V32H24zM25,31H26V32H25zM28,31H29V32H28zM32,31H33V32H32zM35,31H36V32H35zM4,32H5V33H4zM6,32H7V33H6zM7,32H8V33H7zM8,32H9V33H8zM10,32H11V33H10zM13,32H14V33H13zM17,32H18V33H17zM18,32H19V33H18zM19,32H20V33H19zM20,32H21V33H20zM23,32H24V33H23zM25,32H26V33H25zM26,32H27V33H26zM28,32H29V33H28zM29,32H30V33H29zM30,32H31V33H30zM31,32H32V33H31zM32,32H33V33H32zM33,32H34V33H33zM35,32H36V33H35zM36,32H37V33H36zM4,33H5V34H4zM6,33H7V34H6zM7,33H8V34H7zM8,33H9V34H8zM10,33H11V34H10zM12,33H13V34H12zM14,33H15V34H14zM18,33H19V34H18zM19,33H20V34H19zM21,33H22V34H21zM26,33H27V34H26zM27,33H28V34H27zM30,33H31V34H30zM32,33H33V34H32zM33,33H34V34H33zM34,33H35V34H34zM4,34H5V35H4zM6,34H7V35H6zM7,34H8V35H7zM8,34H9V35H8zM10,34H11V35H10zM13,34H14V35H13zM15,34H16V35H15zM16,34H17V35H16zM21,34H22V35H21zM24,34H25V35H24zM26,34H27V35H26zM32,34H33V35H32zM33,34H34V35H33zM34,34H35V35H34zM36,34H37V35H36zM4,35H5V36H4zM10,35H11V36H10zM14,35H15V36H14zM15,35H16V36H15zM16,35H17V36H16zM17,35H18V36H17zM18,35H19V36H18zM19,35H20V36H19zM20,35H21V36H20zM21,35H22V36H21zM22,35H23V36H22zM24,35H25V36H24zM25,35H26V36H25zM28,35H29V36H28zM29,35H30V36H29zM30,35H31V36H30zM4,36H5V37H4zM5,36H6V37H5zM6,36H7V37H6zM7,36H8V37H7zM8,36H9V37H8zM9,36H10V37H9zM10,36H11V37H10zM12,36H13V37H12zM14,36H15V37H14zM15,36H16V37H15zM17,36H18V37H17zM18,36H19V37H18zM20,36H21V37H20zM24,36H25V37H24zM25,36H26V37H25zM28,36H29V37H28zM29,36H30V37H29zM30,36H31V37H30zM32,36H33V37H32zM33,36H34V37H33zM35,36H36V37H35z" id="qr-path" fill="#000000" fill-opacity="1" fill-rule="nonzero" stroke="none" /></svg>
